# xmcd CD database file
#
# Track frame offsets:
#	150
#	28360
#	52754
#	79400
#	104760
#	142663
#	161632
#	190877
#	221770
#	249024
#
# Disc length: 3689 seconds
#
# Revision: 0
# Processed by: cddbd v1.5.2PL0 Copyright (c) Steve Scherf et al.
# Submitted via: CDex 1.70beta2
#
DISCID=860e670a
DTITLE=Guillaume Bouchard - Chemins
DYEAR=2009
DGENRE=Jazz
TTITLE0=Blue Truck
TTITLE1=Blues de l'aviation
TTITLE2=Une dernière virée
TTITLE3=Blues au sixième
TTITLE4=Annette
TTITLE5=La guitare
TTITLE6=Chemins croisés
TTITLE7=L'après-midi de Noël
TTITLE8=Bon voyage
TTITLE9=La lune
EXTD=YEAR: 2009
EXTT0=
EXTT1=
EXTT2=
EXTT3=
EXTT4=
EXTT5=
EXTT6=
EXTT7=
EXTT8=
EXTT9=
PLAYORDER=
